<?xml version="1.0" ?><!DOCTYPE svg  PUBLIC '-//W3C//DTD SVG 1.1//EN'  'http://www.w3.org/Graphics/SVG/1.1/DTD/svg11.dtd'><svg enable-background="new 0 0 64 64" height="64px" version="1.1" viewBox="0 0 64 64" width="64px" xml:space="preserve" xmlns="http://www.w3.org/2000/svg" xmlns:xlink="http://www.w3.org/1999/xlink"><g id="stop_x2C__Corona_virus_x2C__Covid-19"><g id="XMLID_1263_"><path d="M19.123,28.522l-0.966-0.258c0.279-1.047,0.684-2.062,1.201-3.018l0.879,0.477    C19.757,26.61,19.382,27.551,19.123,28.522z" fill="#37474F"/><path d="M17.775,33.441c-0.059-0.522-0.088-1.053-0.088-1.577c0-0.551,0.033-1.108,0.098-1.655l0.993,0.117    c-0.06,0.509-0.091,1.026-0.091,1.538c0,0.487,0.028,0.979,0.083,1.466L17.775,33.441z" fill="#37474F"/><path d="M19.137,38.055c-0.412-0.827-0.741-1.698-0.979-2.59l0.966-0.258c0.221,0.827,0.527,1.635,0.909,2.402    L19.137,38.055z" fill="#37474F"/><path d="M24.458,43.806c-0.494-0.296-0.967-0.621-1.419-0.974l0.671-0.745c0.403,0.311,0.824,0.599,1.262,0.861    L24.458,43.806z" fill="#37474F"/><path d="M31.597,45.775c-1.833,0-3.616-0.352-5.297-1.044l0.381-0.925c1.56,0.643,3.214,0.969,4.917,0.969    c7.119,0,12.911-5.792,12.911-12.911c0-1.91-0.407-3.749-1.209-5.464l0.905-0.424c0.866,1.849,1.304,3.83,1.304,5.888    C45.508,39.535,39.268,45.775,31.597,45.775z" fill="#37474F"/><path d="M29.059,19.203l-0.195-0.98c1.46-0.292,3.001-0.346,4.483-0.16l-0.124,0.992    C31.846,18.884,30.416,18.933,29.059,19.203z" fill="#37474F"/><path d="M24.589,21.02l-0.544-0.839c0.942-0.611,1.957-1.105,3.016-1.47l0.326,0.945    C26.404,19.994,25.463,20.453,24.589,21.02z" fill="#37474F"/><path d="M20.991,24.5l-0.82-0.571c0.653-0.938,1.42-1.795,2.281-2.547l0.658,0.753    C22.311,22.833,21.598,23.629,20.991,24.5z" fill="#37474F"/><g><path d="M32.747,41.411c-1.121,0-2.033-0.912-2.033-2.033s0.912-2.033,2.033-2.033s2.033,0.912,2.033,2.033     S33.867,41.411,32.747,41.411z M32.747,38.345c-0.569,0-1.033,0.463-1.033,1.033s0.463,1.033,1.033,1.033     s1.033-0.463,1.033-1.033S33.316,38.345,32.747,38.345z" fill="#37474F"/></g><g><path d="M25.85,27c-1.121,0-2.033-0.912-2.033-2.033s0.912-2.033,2.033-2.033s2.032,0.912,2.032,2.033     S26.971,27,25.85,27z M25.85,23.935c-0.569,0-1.033,0.463-1.033,1.033S25.281,26,25.85,26s1.032-0.463,1.032-1.033     S26.419,23.935,25.85,23.935z" fill="#37474F"/></g><g><path d="M37.728,35.813c-1.332,0-2.416-1.083-2.416-2.416s1.084-2.416,2.416-2.416s2.416,1.084,2.416,2.416     S39.06,35.813,37.728,35.813z M37.728,31.981c-0.781,0-1.416,0.635-1.416,1.416s0.635,1.416,1.416,1.416s1.416-0.635,1.416-1.416     S38.509,31.981,37.728,31.981z" fill="#37474F"/></g><g id="XMLID_130_"><g><path d="M33.271,52.862c-0.917,0-1.725-0.62-1.962-1.507c-0.141-0.524-0.068-1.072,0.203-1.542      c0.271-0.47,0.71-0.806,1.234-0.947c1.062-0.289,2.206,0.378,2.489,1.438c0.29,1.083-0.355,2.199-1.438,2.489      C33.625,52.838,33.448,52.862,33.271,52.862z M33.273,49.795c-0.09,0-0.18,0.012-0.268,0.036      c-0.267,0.071-0.489,0.242-0.627,0.481c-0.138,0.239-0.174,0.517-0.103,0.783c0.145,0.538,0.723,0.875,1.265,0.73      c0.55-0.147,0.877-0.715,0.73-1.265C34.148,50.11,33.739,49.795,33.273,49.795z" fill="#37474F"/></g><g><rect fill="#37474F" height="1" transform="matrix(0.0789 0.9969 -0.9969 0.0789 76.0174 9.9592)" width="6.488" x="29.375" y="45.614"/></g></g><g id="XMLID_131_"><g><path d="M35.813,15.991c-0.177,0-0.355-0.023-0.527-0.07c-0.524-0.14-0.962-0.477-1.234-0.947      s-0.344-1.018-0.203-1.542c0.283-1.059,1.422-1.724,2.489-1.437c0.524,0.14,0.962,0.477,1.234,0.947      c0.272,0.47,0.344,1.018,0.203,1.542C37.538,15.371,36.731,15.991,35.813,15.991z M35.811,12.925      c-0.466,0-0.875,0.315-0.996,0.766c-0.071,0.267-0.035,0.545,0.103,0.784c0.138,0.239,0.36,0.41,0.627,0.481      c0.549,0.146,1.121-0.192,1.265-0.73c0.071-0.266,0.035-0.544-0.103-0.783c-0.138-0.239-0.36-0.41-0.627-0.481      C35.991,12.937,35.9,12.925,35.811,12.925z" fill="#37474F"/></g><g><rect fill="#37474F" height="6.916" transform="matrix(0.9839 0.1788 -0.1788 0.9839 3.9293 -5.9178)" width="1" x="34.296" y="15.382"/></g></g><g id="XMLID_132_"><g><path d="M24.551,51.061c-0.273,0-0.54-0.054-0.793-0.162c-0.5-0.212-0.887-0.606-1.091-1.11      s-0.199-1.056,0.013-1.556c0.426-1.004,1.655-1.507,2.666-1.077c0.5,0.212,0.887,0.606,1.09,1.109      c0.204,0.503,0.199,1.056-0.013,1.556C26.104,50.575,25.369,51.061,24.551,51.061z M24.552,47.995      c-0.416,0-0.789,0.247-0.951,0.629c-0.108,0.254-0.11,0.535-0.007,0.791s0.3,0.456,0.554,0.563      c0.518,0.219,1.138-0.037,1.354-0.547c0.108-0.254,0.11-0.535,0.007-0.79c-0.103-0.256-0.3-0.456-0.554-0.563      C24.826,48.023,24.691,47.995,24.552,47.995z" fill="#37474F"/></g><g><rect fill="#37474F" height="4.905" transform="matrix(0.9206 0.3905 -0.3905 0.9206 19.7858 -6.5938)" width="1" x="25.608" y="42.907"/></g></g><g id="XMLID_135_"><g><path d="M48.541,26.897c-1.09,0-2.049-0.736-2.332-1.791c-0.344-1.287,0.422-2.613,1.708-2.958      c1.269-0.343,2.621,0.45,2.958,1.708c0.167,0.623,0.082,1.274-0.241,1.833s-0.843,0.958-1.467,1.125      C48.962,26.869,48.752,26.897,48.541,26.897z M48.544,23.065c-0.123,0-0.247,0.017-0.368,0.049      c-0.753,0.202-1.203,0.979-1.001,1.733c0.198,0.738,0.99,1.198,1.733,1.001c0.365-0.098,0.67-0.332,0.859-0.66      c0.189-0.327,0.239-0.708,0.142-1.074C49.744,23.497,49.183,23.065,48.544,23.065z" fill="#37474F"/></g><g><rect fill="#37474F" height="4.08" transform="matrix(0.4589 0.8885 -0.8885 0.4589 47.4203 -26.236)" width="1" x="44.75" y="23.774"/></g></g><g id="XMLID_136_"><g><path d="M14.124,38.495c-0.917,0-1.725-0.62-1.962-1.507c-0.141-0.524-0.068-1.072,0.203-1.542      s0.71-0.807,1.234-0.947c1.064-0.29,2.206,0.378,2.489,1.437c0.141,0.524,0.068,1.072-0.203,1.542s-0.71,0.807-1.234,0.947      C14.479,38.472,14.301,38.495,14.124,38.495z M14.126,35.429c-0.09,0-0.18,0.012-0.268,0.036      c-0.267,0.071-0.489,0.242-0.627,0.481c-0.138,0.239-0.174,0.517-0.103,0.784c0.145,0.538,0.717,0.875,1.265,0.73      c0.267-0.071,0.489-0.242,0.627-0.481c0.138-0.239,0.174-0.517,0.103-0.784C15.001,35.744,14.592,35.429,14.126,35.429z" fill="#37474F"/></g><g><rect fill="#37474F" height="6.573" transform="matrix(0.2471 0.969 -0.969 0.2471 48.3071 8.3346)" width="1" x="18.29" y="31.968"/></g></g><g id="XMLID_137_"><g><path d="M50.501,39.723c-0.177,0-0.355-0.023-0.527-0.07c-0.524-0.141-0.963-0.477-1.234-0.947      c-0.271-0.47-0.344-1.018-0.203-1.542c0.283-1.059,1.424-1.727,2.489-1.438c1.083,0.29,1.727,1.407,1.438,2.49      C52.226,39.103,51.418,39.723,50.501,39.723z M50.499,36.656c-0.466,0-0.875,0.315-0.997,0.766      c-0.071,0.267-0.035,0.544,0.103,0.783c0.138,0.239,0.361,0.41,0.627,0.481c0.547,0.145,1.121-0.192,1.265-0.73      c0.147-0.55-0.181-1.118-0.73-1.265C50.679,36.668,50.589,36.656,50.499,36.656z" fill="#37474F"/></g><g><rect fill="#37474F" height="1" transform="matrix(0.9493 0.3144 -0.3144 0.9493 13.8557 -12.8379)" width="4.836" x="44.306" y="36.033"/></g></g><g id="XMLID_138_"><g><path d="M14.66,31.599c-0.177,0-0.354-0.023-0.527-0.07c-0.524-0.141-0.963-0.477-1.234-0.947      s-0.344-1.018-0.203-1.542c0.284-1.059,1.422-1.724,2.489-1.437c0.524,0.14,0.963,0.477,1.234,0.947s0.344,1.018,0.203,1.542      C16.384,30.979,15.577,31.599,14.66,31.599z M14.658,28.532c-0.466,0-0.875,0.315-0.997,0.766      c-0.071,0.267-0.035,0.545,0.103,0.784c0.138,0.239,0.361,0.41,0.627,0.481c0.544,0.146,1.121-0.192,1.265-0.73      c0.071-0.266,0.035-0.545-0.104-0.784c-0.138-0.239-0.36-0.41-0.627-0.481C14.837,28.544,14.748,28.532,14.658,28.532z" fill="#37474F"/></g><g><rect fill="#37474F" height="1" transform="matrix(0.9934 0.1145 -0.1145 0.9934 3.5645 -1.8023)" width="2.668" x="16.13" y="29.615"/></g></g><g id="XMLID_139_"><g><path d="M44.91,46.671c-0.917,0-1.725-0.62-1.962-1.507c-0.29-1.083,0.355-2.199,1.438-2.489      c1.063-0.289,2.205,0.379,2.489,1.438c0.141,0.524,0.068,1.072-0.203,1.542c-0.271,0.47-0.709,0.807-1.234,0.947      C45.265,46.647,45.087,46.671,44.91,46.671z M44.912,43.604c-0.09,0-0.18,0.012-0.268,0.036c-0.55,0.147-0.877,0.715-0.73,1.265      c0.145,0.539,0.719,0.875,1.265,0.73c0.266-0.071,0.489-0.242,0.627-0.481c0.138-0.239,0.174-0.517,0.103-0.783      C45.788,43.92,45.378,43.604,44.912,43.604z" fill="#37474F"/></g><g><rect fill="#37474F" height="1" transform="matrix(0.7089 0.7053 -0.7053 0.7089 42.425 -17.8241)" width="3.777" x="40.918" y="41.985"/></g></g><g id="XMLID_140_"><g><path d="M39.643,49.071c-0.917,0-1.725-0.62-1.962-1.507c-0.29-1.083,0.355-2.199,1.438-2.489      c1.063-0.288,2.205,0.379,2.489,1.438c0.141,0.524,0.068,1.072-0.203,1.542c-0.271,0.47-0.709,0.807-1.234,0.947      C39.998,49.047,39.82,49.071,39.643,49.071z M39.645,46.004c-0.09,0-0.18,0.012-0.268,0.036c-0.55,0.147-0.877,0.715-0.73,1.265      c0.145,0.538,0.72,0.876,1.265,0.73c0.266-0.071,0.489-0.242,0.627-0.481c0.138-0.239,0.174-0.517,0.103-0.783      C40.52,46.32,40.11,46.004,39.645,46.004z" fill="#37474F"/></g><g><rect fill="#37474F" height="1.001" transform="matrix(0.4517 0.8922 -0.8922 0.4517 61.0885 -9.703)" width="1.942" x="37.468" y="44.351"/></g></g><g id="XMLID_141_"><g><path d="M48.542,33.284c-1.083,0-1.974-0.848-2.029-1.929c-0.028-0.542,0.157-1.063,0.521-1.465      c0.364-0.403,0.863-0.641,1.405-0.668l0.105-0.002c1.083,0,1.974,0.847,2.029,1.929c0.057,1.12-0.808,2.077-1.927,2.134      L48.542,33.284z M48.544,30.218c-0.329,0.016-0.583,0.136-0.768,0.341c-0.185,0.205-0.279,0.469-0.265,0.744      c0.028,0.55,0.48,0.98,1.03,0.98v0.5l0.054-0.501c0.275-0.014,0.529-0.134,0.714-0.339s0.279-0.469,0.265-0.745      C49.546,30.649,49.094,30.218,48.544,30.218z" fill="#37474F"/></g><g><rect fill="#37474F" height="1" transform="matrix(0.9994 0.0341 -0.0341 0.9994 1.0952 -1.551)" width="2.102" x="44.911" y="30.793"/></g></g><rect fill="#37474F" height="1" id="XMLID_1281_" width="1" x="38" y="38"/><rect fill="#37474F" height="1" id="XMLID_1280_" width="1" x="36" y="40"/><rect fill="#37474F" height="1" id="XMLID_1277_" width="1" x="42" y="31"/><rect fill="#37474F" height="1" id="XMLID_1275_" width="1" x="22" y="30"/><rect fill="#37474F" height="1" id="XMLID_1274_" width="1" x="28" y="29"/><rect fill="#37474F" height="1" id="XMLID_1272_" width="1" x="31" y="21"/><path d="M42.575,25.066c-0.229-0.368-0.475-0.724-0.737-1.065l0.671-0.766c0.329,0.416,0.634,0.851,0.916,1.304    L42.575,25.066z" fill="#37474F"/><path d="M37.417,20.337c-0.861-0.436-1.774-0.775-2.714-1.007l0.24-0.971c1.013,0.25,1.998,0.616,2.926,1.086    L37.417,20.337z" fill="#37474F"/></g><g id="XMLID_1271_"><path d="M23.817,33.78c0,0.139,0.022,0.272,0.049,0.403l2.386-2.386    c-0.131-0.027-0.264-0.049-0.403-0.049C24.729,31.748,23.817,32.66,23.817,33.78z" fill="#37474F" id="XMLID_1573_"/><path d="M30.682,26.565c0,0.242,0.047,0.469,0.115,0.688l0.907-0.907    c0.095-0.604,0.57-1.08,1.175-1.175l0.907-0.907c-0.219-0.067-0.447-0.115-0.688-0.115C31.765,24.149,30.682,25.233,30.682,26.565    z" fill="#37474F" id="XMLID_1576_"/></g><path d="M32,59C17.112,59,5,46.888,5,32S17.112,5,32,5s27,12.112,27,27S46.888,59,32,59z M32,6   C17.664,6,6,17.664,6,32s11.664,26,26,26s26-11.664,26-26S46.336,6,32,6z M32,55c-5.649,0-11.083-2.071-15.3-5.832l-0.395-0.352   l32.511-32.511l0.352,0.395C52.929,20.917,55,26.351,55,32C55,44.682,44.682,55,32,55z M17.766,48.77C21.74,52.146,26.773,54,32,54   c12.131,0,22-9.869,22-22c0-5.227-1.854-10.26-5.23-14.234L17.766,48.77z M14.25,46.628l-0.348-0.444C10.695,42.099,9,37.194,9,32   c0-2.635,0.442-5.22,1.314-7.682l0.942,0.334C10.423,27.007,10,29.479,10,32c0,4.779,1.5,9.303,4.346,13.119l30.773-30.773   C41.303,11.5,36.779,10,32,10c-1.223,0-2.45,0.101-3.647,0.301l-0.164-0.986C29.44,9.106,30.723,9,32,9   c5.194,0,10.099,1.695,14.185,4.902l0.444,0.348L14.25,46.628z M14.116,19.185l-0.813-0.583c0.333-0.463,0.681-0.913,1.046-1.349   l0.767,0.642C14.768,18.312,14.434,18.742,14.116,19.185z M19.772,13.708l-0.557-0.83c0.557-0.374,1.137-0.727,1.724-1.049   l0.481,0.877C20.859,13.014,20.305,13.351,19.772,13.708z" fill="#37474F"/><g id="XMLID_156_"><g><path d="M24.149,12.769c-1.068,0-1.996-0.687-2.308-1.709c-0.189-0.616-0.126-1.27,0.176-1.84     s0.809-0.987,1.426-1.176c1.262-0.387,2.633,0.352,3.016,1.602c0.39,1.273-0.329,2.627-1.602,3.017     C24.627,12.733,24.389,12.769,24.149,12.769z M24.151,8.938c-0.14,0-0.279,0.021-0.415,0.063     c-0.361,0.111-0.658,0.355-0.835,0.689c-0.178,0.334-0.214,0.717-0.104,1.078c0.225,0.733,1.026,1.167,1.768,0.939     c0.746-0.229,1.167-1.021,0.938-1.768C25.32,9.34,24.776,8.938,24.151,8.938z" fill="#37474F"/></g><g><rect fill="#37474F" height="1" transform="matrix(0.3471 0.9378 -0.9378 0.3471 32.7026 -13.9127)" width="10.047" x="21.32" y="16.031"/></g></g><g id="XMLID_157_"><g><path d="M17.033,17.393c-0.542,0-1.053-0.211-1.437-0.595c-0.384-0.384-0.595-0.895-0.595-1.438     s0.211-1.053,0.595-1.437c0.768-0.768,2.107-0.768,2.875,0c0.384,0.384,0.596,0.894,0.596,1.437s-0.212,1.054-0.596,1.438     C18.086,17.182,17.576,17.393,17.033,17.393z M17.033,14.328c-0.275,0-0.535,0.107-0.73,0.302s-0.302,0.454-0.302,0.73     s0.107,0.535,0.302,0.73c0.39,0.39,1.071,0.389,1.46,0c0.195-0.195,0.303-0.455,0.303-0.73s-0.107-0.535-0.303-0.73     S17.309,14.328,17.033,14.328z" fill="#37474F"/></g><g><rect fill="#37474F" height="1" transform="matrix(0.6442 0.7649 -0.7649 0.6442 22.1094 -8.8421)" width="7.58" x="16.769" y="18.843"/></g></g><g id="XMLID_158_"><g><path d="M11.593,23.275c-0.177,0-0.354-0.023-0.527-0.07c-0.524-0.141-0.963-0.477-1.234-0.947     c-0.271-0.471-0.344-1.018-0.203-1.542c0.284-1.059,1.422-1.727,2.489-1.438c0.524,0.141,0.963,0.477,1.234,0.947     c0.271,0.471,0.344,1.018,0.203,1.542C13.317,22.655,12.51,23.275,11.593,23.275z M11.591,20.208     c-0.466,0-0.875,0.315-0.997,0.766c-0.071,0.267-0.035,0.544,0.103,0.783c0.138,0.239,0.361,0.41,0.627,0.481     c0.549,0.146,1.121-0.192,1.265-0.73c0.071-0.267,0.035-0.544-0.103-0.783c-0.138-0.239-0.361-0.41-0.627-0.481     C11.771,20.221,11.681,20.208,11.591,20.208z" fill="#37474F"/></g><g><rect fill="#37474F" height="1" transform="matrix(0.8797 0.4755 -0.4755 0.8797 13.559 -5.4592)" width="10.224" x="12.457" y="23.569"/></g></g></g></svg>