<?xml version="1.0" ?><svg style="enable-background:new 0 0 128 128;" version="1.1" viewBox="0 0 128 128" xml:space="preserve" xmlns="http://www.w3.org/2000/svg" xmlns:xlink="http://www.w3.org/1999/xlink"><g id="Layer_1"/><g id="Layer_2"/><g id="Layer_3"/><g id="Layer_4"/><g id="Layer_5"/><g id="Layer_6"/><g id="Layer_7"/><g id="Layer_8"/><g id="Layer_9"/><g id="Layer_10"/><g id="Layer_11"/><g id="Layer_12"/><g id="Layer_13"><path d="M42.73,101.19c-0.51,0-1.02-0.2-1.41-0.59L26.86,86.15c-0.38-0.38-0.59-0.88-0.59-1.41s0.21-1.04,0.59-1.41l68.66-68.66   c0.78-0.78,2.05-0.78,2.83,0l14.45,14.45c0.38,0.38,0.59,0.88,0.59,1.41s-0.21,1.04-0.59,1.41L87.41,57.33   c-0.78,0.78-2.05,0.78-2.83,0c-0.78-0.78-0.78-2.05,0-2.83l23.97-23.97L96.93,18.9L31.11,84.73l11.63,11.63L58.5,80.59   c0.78-0.78,2.05-0.78,2.83,0c0.78,0.78,0.78,2.05,0,2.83L44.15,100.6C43.76,100.99,43.24,101.19,42.73,101.19z"/><path d="M104.16,25.3c-0.51,0-1.02-0.2-1.41-0.59c-0.78-0.78-0.78-2.05,0-2.83L116.3,8.34c0.78-0.78,2.05-0.78,2.83,0   c0.78,0.78,0.78,2.05,0,2.83l-13.55,13.55C105.18,25.11,104.67,25.3,104.16,25.3z"/><path d="M122.23,16.27c-0.51,0-1.02-0.2-1.41-0.59l-9.94-9.94c-0.78-0.78-0.78-2.05,0-2.83c0.78-0.78,2.05-0.78,2.83,0l9.94,9.94   c0.78,0.78,0.78,2.05,0,2.83C123.25,16.07,122.74,16.27,122.23,16.27z"/><path d="M34.6,103.9c-0.51,0-1.02-0.2-1.41-0.59l-9.03-9.03c-0.78-0.78-0.78-2.05,0-2.83l5.42-5.42c0.78-0.78,2.05-0.78,2.83,0   l9.03,9.03c0.78,0.78,0.78,2.05,0,2.83l-5.42,5.42C35.63,103.7,35.11,103.9,34.6,103.9z M28.4,92.86l6.21,6.21l2.59-2.59   l-6.21-6.21L28.4,92.86z"/><path d="M9.31,120.16c-0.51,0-1.02-0.2-1.41-0.59c-0.78-0.78-0.78-2.05,0-2.83l19.87-19.87c0.78-0.78,2.05-0.78,2.83,0   c0.78,0.78,0.78,2.05,0,2.83l-19.87,19.87C10.33,119.96,9.82,120.16,9.31,120.16z"/><path d="M40.02,84.02c-0.51,0-1.02-0.2-1.41-0.59l-4.52-4.52c-0.78-0.78-0.78-2.05,0-2.83c0.78-0.78,2.05-0.78,2.83,0l4.52,4.52   c0.78,0.78,0.78,2.05,0,2.83C41.05,83.83,40.53,84.02,40.02,84.02z"/><path d="M47.25,76.79c-0.51,0-1.02-0.2-1.41-0.59l-4.52-4.52c-0.78-0.78-0.78-2.05,0-2.83c0.78-0.78,2.05-0.78,2.83,0l4.52,4.52   c0.78,0.78,0.78,2.05,0,2.83C48.27,76.6,47.76,76.79,47.25,76.79z"/><path d="M54.48,69.57c-0.51,0-1.02-0.2-1.41-0.59l-4.52-4.52c-0.78-0.78-0.78-2.05,0-2.83c0.78-0.78,2.05-0.78,2.83,0l4.52,4.52   c0.78,0.78,0.78,2.05,0,2.83C55.5,69.37,54.99,69.57,54.48,69.57z"/><path d="M68.93,55.11c-0.51,0-1.02-0.2-1.41-0.59L63,50.01c-0.78-0.78-0.78-2.05,0-2.83c0.78-0.78,2.05-0.78,2.83,0l4.52,4.52   c0.78,0.78,0.78,2.05,0,2.83C69.95,54.92,69.44,55.11,68.93,55.11z"/><path d="M76.16,47.89c-0.51,0-1.02-0.2-1.41-0.59l-4.52-4.52c-0.78-0.78-0.78-2.05,0-2.83c0.78-0.78,2.05-0.78,2.83,0l4.52,4.52   c0.78,0.78,0.78,2.05,0,2.83C77.18,47.69,76.67,47.89,76.16,47.89z"/><path d="M83.38,40.66c-0.51,0-1.02-0.2-1.41-0.59l-4.52-4.52c-0.78-0.78-0.78-2.05,0-2.83c0.78-0.78,2.05-0.78,2.83,0l4.52,4.52   c0.78,0.78,0.78,2.05,0,2.83C84.41,40.46,83.9,40.66,83.38,40.66z"/><path d="M90.61,33.43c-0.51,0-1.02-0.2-1.41-0.59l-4.52-4.52c-0.78-0.78-0.78-2.05,0-2.83c0.78-0.78,2.05-0.78,2.83,0l4.52,4.52   c0.78,0.78,0.78,2.05,0,2.83C91.63,33.24,91.12,33.43,90.61,33.43z"/><path d="M59.68,95.25c-1.1,0-2-0.9-2-2V62.58c0-4.27,3.47-7.74,7.74-7.74h46.01c1.1,0,2,0.9,2,2s-0.9,2-2,2H65.42   c-2.06,0-3.74,1.68-3.74,3.74v30.67C61.68,94.36,60.78,95.25,59.68,95.25z"/><path d="M88.42,124c-1.47,0-23.16-10.1-29.17-23.69c-0.45-1.01,0.01-2.19,1.02-2.64c1.01-0.45,2.19,0.01,2.64,1.02   c4.77,10.78,21.92,19.64,25.52,21.18c4.42-1.85,26.74-13.63,26.74-26.62V62.58c0-0.72-0.2-1.41-0.58-2.01   c-0.59-0.93-0.32-2.17,0.61-2.76c0.93-0.59,2.17-0.32,2.76,0.61c0.79,1.24,1.21,2.68,1.21,4.16v30.67   C119.17,110.53,89.72,124,88.42,124z"/><path d="M83.68,101L83.68,101c-0.53,0-1.04-0.21-1.41-0.59l-9.22-9.22c-0.38-0.38-0.59-0.88-0.59-1.41v-7.51   c0-0.81,0.49-1.54,1.23-1.85c0.75-0.31,1.61-0.14,2.18,0.43l7.8,7.8l18.39-18.39c0.57-0.57,1.43-0.74,2.18-0.43   c0.75,0.31,1.23,1.04,1.23,1.85v7.51c0,0.53-0.21,1.04-0.59,1.41l-19.8,19.8C84.72,100.79,84.21,101,83.68,101z M76.47,88.95   l7.22,7.22l17.8-17.8v-1.85L85.1,92.9c-0.78,0.78-2.05,0.78-2.83,0l-5.8-5.8V88.95z M103.49,79.2L103.49,79.2L103.49,79.2z"/></g><g id="Layer_14"/><g id="Layer_15"/><g id="Layer_16"/><g id="Layer_17"/><g id="Layer_18"/><g id="Layer_19"/><g id="Layer_20"/></svg>