<?xml version="1.0" ?><svg enable-background="new 0 0 64 64" version="1.1" viewBox="0 0 64 64" xml:space="preserve" xmlns="http://www.w3.org/2000/svg" xmlns:xlink="http://www.w3.org/1999/xlink"><g id="grid"/><g id="Layer_2"><path d="M14,3.4c5.7,0,10.4,4.7,10.4,10.4v17.1H3.6V13.8C3.6,8,8.3,3.4,14,3.4z M14,60.4C8.3,60.4,3.6,55.7,3.6,50V32.9h20.8V50   C24.4,55.7,19.7,60.4,14,60.4z M34.5,6.3c1.1-0.4,2.3-0.6,3.5-0.6c4.4,0,8.3,2.8,9.8,6.9l5.7,16.1l-19.6,6.9l-5.7-16.1   C26.2,14.2,29.1,8.2,34.5,6.3z M59.4,54.7c-1.2,2.5-3.3,4.4-5.9,5.3c-1.1,0.4-2.3,0.6-3.5,0.6c-4.4,0-8.3-2.8-9.8-6.9l-5.7-16.1   l19.6-6.9l5.7,16.1C60.7,49.4,60.6,52.2,59.4,54.7z"/></g></svg>