<svg width="64" height="64" xmlns="http://www.w3.org/2000/svg">
 <title/>

 <g>
  <title>background</title>
  <rect fill="none" id="canvas_background" height="402" width="582" y="-1" x="-1"/>
 </g>
 <g>
  <title>Layer 1</title>
  <path id="svg_1" fill="none" stroke="#f9ff21" stroke-linejoin="round" stroke-width="2px" d="m46,30l1,0a3,3 0 0 0 3,-3l0,0a3,3 0 0 0 -3,-3l0,0l0,-9l-24,0l0,9l0,0a3,3 0 0 0 -3,3l0,0a3,3 0 0 0 3,3l1,0"/>
  <path id="svg_2" fill="none" stroke="#f9ff21" stroke-linejoin="round" stroke-width="2px" d="m24,28l22,0a0,0 0 0 1 0,0l0,3a11,11 0 0 1 -11,11l0,0a11,11 0 0 1 -11,-11l0,-3a0,0 0 0 1 0,0z"/>
  <path id="svg_3" fill="none" stroke="#f9ff21" stroke-linejoin="round" stroke-width="2px" d="m21,25l-2.209,-2.209a6.329,6.329 0 0 1 -0.675,-8.154l1.389,-1.944a1.414,1.414 0 0 0 0.114,-1.455l0,0a3.753,3.753 0 0 1 1.56,-4.972l0.763,-0.416a19.621,19.621 0 0 1 14.788,-1.641l0,0a20.118,20.118 0 0 0 12.4,-0.437l4.87,-1.772l-3,8l6,-1l-2.921,4.381a4.4,4.4 0 0 0 -0.607,3.506l0,0a4.4,4.4 0 0 1 -0.833,3.814l-3.639,4.299"/>
  <line id="svg_4" fill="none" stroke="#f9ff21" stroke-linejoin="round" stroke-width="2px" y2="32" y1="32" x2="42" x1="24"/>
  <line id="svg_5" fill="none" stroke="#f9ff21" stroke-linejoin="round" stroke-width="2px" y2="36" y1="36" x2="40" x1="25"/>
  <path id="svg_6" fill="none" stroke="#f9ff21" stroke-linejoin="round" stroke-width="2px" d="m32,42l0,4l-9,3l2.6,2.926a12.563,12.563 0 0 0 3.234,2.606l0,0a12.576,12.576 0 0 0 12.33,0l0,0a12.563,12.563 0 0 0 3.236,-2.606l2.6,-2.926l-9,-3l0,-4"/>
  <path id="svg_7" fill="none" stroke="#f9ff21" stroke-linejoin="round" stroke-width="2px" d="m23,49l0,0a13.323,13.323 0 0 0 -5,10.4l0,3.6l34,0l0,-3.6a13.323,13.323 0 0 0 -5,-10.4l0,0"/>
  <path id="svg_8" fill="none" stroke="#f9ff21" stroke-linejoin="round" stroke-width="2px" d="m33,21l0,0a11.983,11.983 0 0 1 -4.683,2.894l-0.317,0.106"/>
  <path id="svg_9" fill="none" stroke="#f9ff21" stroke-linejoin="round" stroke-width="2px" d="m37,21l0,0a11.983,11.983 0 0 0 4.683,2.894l0.317,0.106"/>
  <circle id="svg_10" fill="none" stroke="#f9ff21" stroke-linejoin="round" stroke-width="2px" r="5" cy="43" cx="56"/>
  <line id="svg_11" fill="none" stroke="#f9ff21" stroke-linejoin="round" stroke-width="2px" y2="38" y1="35" x2="56" x1="56"/>
  <line id="svg_12" fill="none" stroke="#f9ff21" stroke-linejoin="round" stroke-width="2px" y2="39.561" y1="37.439" x2="59.939" x1="62.061"/>
  <line id="svg_13" fill="none" stroke="#f9ff21" stroke-linejoin="round" stroke-width="2px" y2="39.561" y1="37.439" x2="52.061" x1="49.939"/>
  <line id="svg_14" fill="none" stroke="#f9ff21" stroke-linejoin="round" stroke-width="2px" y2="51" y1="48" x2="56" x1="56"/>
  <line id="svg_15" fill="none" stroke="#f9ff21" stroke-linejoin="round" stroke-width="2px" y2="48.561" y1="46.439" x2="62.061" x1="59.939"/>
  <line id="svg_16" fill="none" stroke="#f9ff21" stroke-linejoin="round" stroke-width="2px" y2="48.561" y1="46.439" x2="49.939" x1="52.061"/>
  <line id="svg_17" fill="none" stroke="#f9ff21" stroke-linejoin="round" stroke-width="2px" y2="43" y1="43" x2="64" x1="61"/>
  <line id="svg_18" fill="none" stroke="#f9ff21" stroke-linejoin="round" stroke-width="2px" y2="43" y1="43" x2="51" x1="48"/>
  <line id="svg_19" fill="none" stroke="#f9ff21" stroke-linejoin="round" stroke-width="2px" y2="41" y1="41" x2="58" x1="56"/>
  <line id="svg_20" fill="none" stroke="#f9ff21" stroke-linejoin="round" stroke-width="2px" y2="45" y1="45" x2="56" x1="54"/>
  <circle id="svg_21" fill="none" stroke="#f9ff21" stroke-linejoin="round" stroke-width="2px" r="5" cy="8" cx="8"/>
  <line id="svg_22" fill="none" stroke="#f9ff21" stroke-linejoin="round" stroke-width="2px" y2="3" x2="8" x1="8"/>
  <line id="svg_23" fill="none" stroke="#f9ff21" stroke-linejoin="round" stroke-width="2px" y2="4.561" y1="2.439" x2="11.939" x1="14.061"/>
  <line id="svg_24" fill="none" stroke="#f9ff21" stroke-linejoin="round" stroke-width="2px" y2="4.561" y1="2.439" x2="4.061" x1="1.939"/>
  <line id="svg_25" fill="none" stroke="#f9ff21" stroke-linejoin="round" stroke-width="2px" y2="16" y1="13" x2="8" x1="8"/>
  <line id="svg_26" fill="none" stroke="#f9ff21" stroke-linejoin="round" stroke-width="2px" y2="13.561" y1="11.439" x2="14.061" x1="11.939"/>
  <line id="svg_27" fill="none" stroke="#f9ff21" stroke-linejoin="round" stroke-width="2px" y2="13.561" y1="11.439" x2="1.939" x1="4.061"/>
  <line id="svg_28" fill="none" stroke="#f9ff21" stroke-linejoin="round" stroke-width="2px" y2="8" y1="8" x2="16" x1="13"/>
  <line id="svg_29" fill="none" stroke="#f9ff21" stroke-linejoin="round" stroke-width="2px" y2="8" y1="8" x2="3"/>
  <line id="svg_30" fill="none" stroke="#f9ff21" stroke-linejoin="round" stroke-width="2px" y2="6" y1="6" x2="10" x1="8"/>
  <line id="svg_31" fill="none" stroke="#f9ff21" stroke-linejoin="round" stroke-width="2px" y2="10" y1="10" x2="8" x1="6"/>
  <circle id="svg_32" fill="none" stroke="#f9ff21" stroke-linejoin="round" stroke-width="2px" r="5" cy="36" cx="12"/>
  <line id="svg_33" fill="none" stroke="#f9ff21" stroke-linejoin="round" stroke-width="2px" y2="31" y1="28" x2="12" x1="12"/>
  <line id="svg_34" fill="none" stroke="#f9ff21" stroke-linejoin="round" stroke-width="2px" y2="32.561" y1="30.439" x2="15.939" x1="18.061"/>
  <line id="svg_35" fill="none" stroke="#f9ff21" stroke-linejoin="round" stroke-width="2px" y2="32.561" y1="30.439" x2="8.061" x1="5.939"/>
  <line id="svg_36" fill="none" stroke="#f9ff21" stroke-linejoin="round" stroke-width="2px" y2="44" y1="41" x2="12" x1="12"/>
  <line id="svg_37" fill="none" stroke="#f9ff21" stroke-linejoin="round" stroke-width="2px" y2="41.561" y1="39.439" x2="18.061" x1="15.939"/>
  <line id="svg_38" fill="none" stroke="#f9ff21" stroke-linejoin="round" stroke-width="2px" y2="41.561" y1="39.439" x2="5.939" x1="8.061"/>
  <line id="svg_39" fill="none" stroke="#f9ff21" stroke-linejoin="round" stroke-width="2px" y2="36" y1="36" x2="20" x1="17"/>
  <line id="svg_40" fill="none" stroke="#f9ff21" stroke-linejoin="round" stroke-width="2px" y2="36" y1="36" x2="7" x1="4"/>
  <line id="svg_41" fill="none" stroke="#f9ff21" stroke-linejoin="round" stroke-width="2px" y2="34" y1="34" x2="14" x1="12"/>
  <line id="svg_42" fill="none" stroke="#f9ff21" stroke-linejoin="round" stroke-width="2px" y2="38" y1="38" x2="12" x1="10"/>
 </g>
</svg>