<svg width="512" height="512" xmlns="http://www.w3.org/2000/svg">

 <g>
  <title>background</title>
  <rect fill="none" id="canvas_background" height="402" width="582" y="-1" x="-1"/>
 </g>
 <g>
  <title>Layer 1</title>
  <path id="svg_2" stroke-width="15" stroke-miterlimit="10" stroke-linejoin="round" stroke-linecap="round" stroke="#d72323" fill="none" d="m163.868,91.576l319.615,319.615c19.136,19.136 19.136,50.161 0,69.296l0,0c-19.136,19.136 -50.161,19.136 -69.296,0l-319.615,-319.614"/>
  <rect id="svg_3" y="62.553342" x="10.327658" width="161.22" transform="matrix(0.7071,-0.7071,0.7071,0.7071,-36.0598,90.7929) " stroke-width="15" stroke-miterlimit="10" stroke-linejoin="round" stroke-linecap="round" stroke="#d72323" height="54" fill="none"/>
  <line id="svg_4" y2="73.972" y1="35.788" x2="144.704" x1="106.52" stroke-width="15" stroke-miterlimit="10" stroke-linejoin="round" stroke-linecap="round" stroke="#d72323" fill="none"/>
  <line id="svg_5" y2="96.472" y1="58.288" x2="122.203" x1="84.02" stroke-width="15" stroke-miterlimit="10" stroke-linejoin="round" stroke-linecap="round" stroke="#d72323" fill="none"/>
  <line id="svg_6" y2="118.972" y1="80.788" x2="99.703" x1="61.52" stroke-width="15" stroke-miterlimit="10" stroke-linejoin="round" stroke-linecap="round" stroke="#d72323" fill="none"/>
  <line id="svg_7" y2="141.472" y1="103.288" x2="77.203" x1="39.02" stroke-width="15" stroke-miterlimit="10" stroke-linejoin="round" stroke-linecap="round" stroke="#d72323" fill="none"/>
  <polyline id="svg_8" stroke-width="15" stroke-miterlimit="10" stroke-linejoin="round" stroke-linecap="round" stroke="#d72323" points="   425.036,432.7 425.036,444.013 463.22,444.013  " fill="none"/>
  <path id="svg_9" fill="#d72323" d="m147.715,123.923c4.357,-0.047 8.2,1.593 11.528,4.921c4.453,4.453 6.233,9.186 5.34,14.198c-0.521,2.795 -1.574,5.069 -3.16,6.824l-5.591,-5.591c0.927,-1.639 1.439,-3.064 1.535,-4.274c0.166,-2.158 -0.729,-4.215 -2.684,-6.17c-1.992,-1.992 -4.383,-2.743 -7.173,-2.253c-2.79,0.49 -5.685,2.236 -8.686,5.237c-3.001,3.001 -4.642,5.855 -4.923,8.563c-0.282,2.708 0.513,4.997 2.383,6.868c1.917,1.917 4.021,2.738 6.31,2.461c1.246,-0.134 2.742,-0.706 4.489,-1.719l5.554,5.554c-3.396,2.438 -6.992,3.586 -10.788,3.444c-3.797,-0.142 -7.233,-1.752 -10.31,-4.828c-3.807,-3.807 -5.565,-8.035 -5.276,-12.682c0.302,-4.659 2.613,-9.149 6.933,-13.469c4.673,-4.672 9.511,-7.032 14.519,-7.084z"/>
  <path id="svg_10" fill="#d72323" d="m171.026,190.398c-4.103,0.061 -8.066,-1.821 -11.89,-5.644c-3.824,-3.824 -5.706,-7.787 -5.645,-11.89c-0.158,-5.264 2.166,-10.297 6.97,-15.102c4.901,-4.901 9.934,-7.224 15.102,-6.97c4.102,-0.06 8.065,1.821 11.889,5.645c3.824,3.824 5.706,7.787 5.645,11.889c0.242,5.156 -2.087,10.183 -6.988,15.084c-4.804,4.805 -9.832,7.134 -15.083,6.988zm0.571,-7.56c2.934,-0.332 5.908,-2.005 8.922,-5.019c3,-3 4.67,-5.972 5.009,-8.912c0.339,-2.941 -0.599,-5.518 -2.813,-7.733c-2.215,-2.215 -4.799,-3.165 -7.75,-2.85c-2.953,0.315 -5.936,1.979 -8.949,4.992c-3.013,3.013 -4.678,5.997 -4.992,8.949c-0.315,2.952 0.635,5.536 2.849,7.751c2.215,2.214 4.79,3.155 7.724,2.822z"/>
  <path id="svg_11" fill="#d72323" d="m220.172,192.17c0.562,1.409 0.773,2.867 0.635,4.374c-0.112,1.245 -0.413,2.443 -0.906,3.597c-0.493,1.154 -1.265,2.256 -2.318,3.309c-1.271,1.271 -2.841,2.2 -4.71,2.786c-1.87,0.587 -3.797,0.396 -5.781,-0.572c0.738,1.731 0.907,3.31 0.508,4.738c-0.399,1.428 -1.537,3.08 -3.413,4.955l-1.797,1.797c-1.222,1.222 -2.002,2.1 -2.339,2.634c-0.542,0.837 -0.706,1.69 -0.492,2.557l-0.672,0.672l-6.172,-6.172c0.423,-0.762 0.781,-1.361 1.071,-1.797c0.605,-0.895 1.294,-1.743 2.069,-2.541l2.45,-2.523c1.684,-1.729 2.526,-3.161 2.528,-4.297c0.002,-1.136 -0.775,-2.482 -2.332,-4.039l-5.46,-5.46l-10.492,10.492l-5.464,-5.464l26.755,-26.755l12.798,12.798c1.795,1.864 2.972,3.502 3.534,4.911zm-15.512,-7.598l-7.188,7.188l6.017,6.017c1.195,1.195 2.237,1.946 3.125,2.254c1.565,0.549 3.099,0.073 4.599,-1.428c1.621,-1.621 2.199,-3.222 1.733,-4.801c-0.26,-0.889 -0.964,-1.909 -2.113,-3.058l-6.173,-6.172z"/>
  <path id="svg_12" fill="#d72323" d="m226.787,246.16c-4.103,0.061 -8.066,-1.821 -11.89,-5.644c-3.824,-3.824 -5.706,-7.787 -5.645,-11.89c-0.158,-5.264 2.166,-10.297 6.97,-15.102c4.901,-4.901 9.934,-7.224 15.102,-6.97c4.102,-0.06 8.065,1.821 11.889,5.645c3.824,3.824 5.706,7.787 5.645,11.889c0.242,5.156 -2.087,10.183 -6.988,15.084c-4.804,4.804 -9.831,7.133 -15.083,6.988zm0.572,-7.56c2.934,-0.332 5.908,-2.005 8.922,-5.019c3,-3 4.67,-5.972 5.009,-8.912c0.339,-2.941 -0.599,-5.518 -2.813,-7.733c-2.215,-2.215 -4.799,-3.165 -7.75,-2.85c-2.953,0.315 -5.936,1.979 -8.949,4.992c-3.014,3.013 -4.678,5.997 -4.992,8.949c-0.315,2.952 0.635,5.536 2.849,7.751c2.215,2.214 4.789,3.155 7.724,2.822z"/>
  <path id="svg_13" fill="#d72323" d="m259.387,230.005l5.861,5.861l-8.035,29.277l18.656,-18.656l5.209,5.209l-26.755,26.755l-5.59,-5.59l8.092,-29.876l-18.984,18.984l-5.21,-5.21l26.756,-26.754z"/>
  <path id="svg_14" fill="#d72323" d="m293.975,264.594l6.326,6.326l-17.289,36.222l-6.063,-6.063l3.734,-7.266l-9.853,-9.853l-7.314,3.686l-5.848,-5.848l36.307,-17.204zm-17.013,16.276l6.852,6.852l7.148,-13.908l-14,7.056z"/>
  <path id="svg_15" fill="#d72323" d="m326.085,296.703l5.809,5.809l-35.877,17.633l-5.282,-5.282l17.707,-35.803l5.972,5.972l-14.503,26.12l26.174,-14.449z"/>
  <path id="svg_16" fill="#d72323" d="m313.57,337.699l-5.554,-5.554l26.755,-26.755l5.554,5.554l-26.755,26.755z"/>
  <path id="svg_17" fill="#d72323" d="m362.009,334.007c0.562,1.409 0.773,2.867 0.635,4.374c-0.112,1.245 -0.413,2.443 -0.906,3.597c-0.493,1.154 -1.265,2.256 -2.318,3.309c-1.271,1.271 -2.841,2.2 -4.71,2.786c-1.87,0.587 -3.797,0.396 -5.781,-0.572c0.738,1.731 0.907,3.31 0.508,4.738c-0.399,1.428 -1.537,3.08 -3.413,4.955l-1.797,1.797c-1.222,1.222 -2.002,2.1 -2.339,2.634c-0.542,0.837 -0.706,1.69 -0.492,2.557l-0.672,0.672l-6.172,-6.172c0.423,-0.762 0.781,-1.361 1.071,-1.797c0.605,-0.895 1.294,-1.743 2.069,-2.541l2.45,-2.523c1.684,-1.729 2.526,-3.161 2.528,-4.297c0.002,-1.136 -0.775,-2.482 -2.332,-4.039l-5.46,-5.46l-10.492,10.492l-5.464,-5.464l26.755,-26.755l12.798,12.798c1.795,1.864 2.972,3.502 3.534,4.911zm-15.512,-7.599l-7.188,7.188l6.017,6.017c1.195,1.195 2.237,1.946 3.125,2.254c1.565,0.549 3.099,0.073 4.599,-1.428c1.621,-1.621 2.199,-3.222 1.733,-4.801c-0.26,-0.889 -0.964,-1.909 -2.113,-3.058l-6.173,-6.172z"/>
  <path id="svg_18" fill="#d72323" d="m372.399,343.017l5.682,5.682l-16.432,16.432c-1.838,1.838 -2.963,3.397 -3.375,4.678c-0.825,2.175 -0.103,4.395 2.164,6.662c2.255,2.255 4.469,2.971 6.644,2.146c1.28,-0.413 2.839,-1.537 4.678,-3.375l16.432,-16.432l5.681,5.681l-16.445,16.445c-2.844,2.844 -5.5,4.618 -7.966,5.321c-4.548,1.261 -9.134,-0.421 -13.762,-5.048c-4.627,-4.627 -6.316,-9.22 -5.066,-13.779c0.703,-2.467 2.476,-5.122 5.321,-7.967l16.444,-16.446z"/>
  <path id="svg_19" fill="#d72323" d="m384.778,392.39c-1.049,1.396 -1.623,2.649 -1.721,3.76c-0.175,2.028 0.862,4.166 3.111,6.415c1.347,1.347 2.585,2.295 3.716,2.845c2.151,1.038 3.982,0.8 5.495,-0.713c0.883,-0.883 1.176,-1.957 0.88,-3.222c-0.309,-1.253 -1.13,-2.909 -2.462,-4.967l-2.262,-3.532c-2.218,-3.476 -3.49,-6.115 -3.817,-7.918c-0.569,-3.038 0.46,-5.869 3.086,-8.495c2.395,-2.395 5.268,-3.504 8.618,-3.326c3.349,0.18 6.732,1.977 10.151,5.395c2.854,2.854 4.541,6.036 5.063,9.546c0.521,3.509 -0.592,6.735 -3.338,9.677l-5.373,-5.373c1.51,-1.709 1.934,-3.572 1.272,-5.59c-0.446,-1.341 -1.332,-2.674 -2.66,-4.002c-1.476,-1.476 -2.945,-2.365 -4.407,-2.664c-1.462,-0.3 -2.712,0.07 -3.753,1.111c-0.956,0.956 -1.235,2.104 -0.839,3.445c0.243,0.873 1.059,2.427 2.448,4.661l3.588,5.803c1.574,2.542 2.469,4.732 2.686,6.569c0.336,2.854 -0.687,5.472 -3.072,7.857c-2.444,2.444 -5.419,3.529 -8.924,3.255c-3.505,-0.275 -6.982,-2.136 -10.432,-5.585c-3.522,-3.522 -5.497,-7.088 -5.924,-10.698c-0.427,-3.609 0.751,-6.805 3.535,-9.588l5.335,5.334z"/>
 </g>
</svg>