<svg width="64" height="64" xmlns="http://www.w3.org/2000/svg">

 <g>
  <title>background</title>
  <rect fill="none" id="canvas_background" height="402" width="582" y="-1" x="-1"/>
 </g>
 <g>
  <title>Layer 1</title>
  <path id="svg_1" d="m56,44a1.993,1.993 0 0 0 -1.722,1l-1.378,0a4.961,4.961 0 0 0 -0.732,-1.753l0.978,-0.978a1.95,1.95 0 0 0 1.926,-0.512l0,0a2,2 0 0 0 0,-2.827a2.047,2.047 0 0 0 -2.828,0a1.95,1.95 0 0 0 -0.512,1.926l-0.978,0.978a4.961,4.961 0 0 0 -1.754,-0.734l0,-1.378a2,2 0 1 0 -2,0l0,1.378a4.961,4.961 0 0 0 -1.753,0.732l-0.978,-0.978a1.95,1.95 0 0 0 -0.512,-1.926l0,0a2.047,2.047 0 0 0 -2.827,0a1.989,1.989 0 0 0 1.925,3.34l0.978,0.978a4.961,4.961 0 0 0 -0.733,1.754l-1.378,0a2,2 0 1 0 0,2l1.378,0a4.961,4.961 0 0 0 0.732,1.753l-0.99,0.99a2.034,2.034 0 0 0 -1.914,0.5l0,0a2.012,2.012 0 1 0 3.34,0.9l0.978,-0.978a4.961,4.961 0 0 0 1.754,0.735l0,1.379a2,2 0 1 0 2,0l0,-1.379a4.961,4.961 0 0 0 1.753,-0.732l0.978,0.978a1.95,1.95 0 0 0 0.512,1.926l0,0a2,2 0 1 0 2.828,-2.828a2.033,2.033 0 0 0 -1.914,-0.5l-0.99,-0.99a4.961,4.961 0 0 0 0.733,-1.754l1.379,0a2,2 0 1 0 1.721,-3zm-8,5a3,3 0 1 1 3,-3a3,3 0 0 1 -3,3z"/>
  <path id="svg_2" d="m37.606,20.4l-6.436,-11.877a1,1 0 0 0 -0.879,-0.523l-14.582,0a1,1 0 0 0 -0.879,0.523l-6.436,11.877a1,1 0 0 0 -0.1,0.7l7.695,34.12a1,1 0 0 0 0.976,0.78l12.07,0a1,1 0 0 0 0.976,-0.78l7.689,-34.126a1,1 0 0 0 -0.094,-0.694zm-9.371,33.6l-10.47,0l-7.433,-32.979l5.968,-11.021l13.4,0l5.972,11.021l-7.437,32.979z"/>
  <path id="svg_4" d="m48,32a13.9,13.9 0 0 0 -7.03,1.912l3.007,-13.7a1,1 0 0 0 -0.093,-0.682l-9,-17a1,1 0 0 0 -0.884,-0.53l-22,0a1,1 0 0 0 -0.884,0.532l-9,17a1,1 0 0 0 -0.093,0.682l9,41a1,1 0 0 0 0.977,0.786l22,0a1,1 0 0 0 0.977,-0.786l1.576,-7.18a13.994,13.994 0 1 0 11.447,-22.034zm-14.8,28l-20.4,0l-8.745,-39.856l8.545,-16.144l20.8,0l8.547,16.144l-3.42,15.579a13.945,13.945 0 0 0 -3.442,15.677l-1.885,8.6zm14.8,-2a12,12 0 1 1 12,-12a12.013,12.013 0 0 1 -12,12z"/>
 </g>
</svg>